<mxfile host="app.diagrams.net" modified="2024-03-09T13:10:16.751Z" agent="Mozilla/5.0 (Windows NT 10.0; Win64; x64) AppleWebKit/537.36 (KHTML, like Gecko) Chrome/122.0.0.0 Safari/537.36 Edg/122.0.0.0" etag="zmywfvVXqTA7GiIAypb1" version="24.0.2" type="device">
  <diagram id="C5RBs43oDa-KdzZeNtuy" name="Page-1">
    <mxGraphModel dx="683" dy="439" grid="1" gridSize="10" guides="1" tooltips="1" connect="1" arrows="1" fold="1" page="1" pageScale="1" pageWidth="827" pageHeight="1169" math="0" shadow="0">
      <root>
        <mxCell id="WIyWlLk6GJQsqaUBKTNV-0" />
        <mxCell id="WIyWlLk6GJQsqaUBKTNV-1" parent="WIyWlLk6GJQsqaUBKTNV-0" />
        <mxCell id="Z5NDLy6NLCNYJSqrc3-v-2" value="" style="edgeStyle=orthogonalEdgeStyle;rounded=0;orthogonalLoop=1;jettySize=auto;html=1;" edge="1" parent="WIyWlLk6GJQsqaUBKTNV-1" source="Z5NDLy6NLCNYJSqrc3-v-0" target="Z5NDLy6NLCNYJSqrc3-v-1">
          <mxGeometry relative="1" as="geometry" />
        </mxCell>
        <mxCell id="Z5NDLy6NLCNYJSqrc3-v-0" value="UpdateListVisual&lt;div&gt;Начало&lt;/div&gt;" style="strokeWidth=2;html=1;shape=mxgraph.flowchart.terminator;whiteSpace=wrap;" vertex="1" parent="WIyWlLk6GJQsqaUBKTNV-1">
          <mxGeometry x="50" y="40" width="190" height="60" as="geometry" />
        </mxCell>
        <mxCell id="Z5NDLy6NLCNYJSqrc3-v-4" value="" style="edgeStyle=orthogonalEdgeStyle;rounded=0;orthogonalLoop=1;jettySize=auto;html=1;" edge="1" parent="WIyWlLk6GJQsqaUBKTNV-1" source="Z5NDLy6NLCNYJSqrc3-v-1" target="Z5NDLy6NLCNYJSqrc3-v-3">
          <mxGeometry relative="1" as="geometry" />
        </mxCell>
        <mxCell id="Z5NDLy6NLCNYJSqrc3-v-1" value="&lt;div&gt;ClearWindow&lt;/div&gt;" style="rounded=0;whiteSpace=wrap;html=1;" vertex="1" parent="WIyWlLk6GJQsqaUBKTNV-1">
          <mxGeometry x="50" y="120" width="190" height="60" as="geometry" />
        </mxCell>
        <mxCell id="Z5NDLy6NLCNYJSqrc3-v-6" value="" style="edgeStyle=orthogonalEdgeStyle;rounded=0;orthogonalLoop=1;jettySize=auto;html=1;" edge="1" parent="WIyWlLk6GJQsqaUBKTNV-1" source="Z5NDLy6NLCNYJSqrc3-v-3" target="Z5NDLy6NLCNYJSqrc3-v-5">
          <mxGeometry relative="1" as="geometry" />
        </mxCell>
        <mxCell id="Z5NDLy6NLCNYJSqrc3-v-3" value="DisplayList" style="shape=process;whiteSpace=wrap;html=1;backgroundOutline=1;" vertex="1" parent="WIyWlLk6GJQsqaUBKTNV-1">
          <mxGeometry x="50" y="200" width="190" height="60" as="geometry" />
        </mxCell>
        <mxCell id="Z5NDLy6NLCNYJSqrc3-v-5" value="UpdateListVisual&lt;div&gt;Конец&lt;/div&gt;" style="strokeWidth=2;html=1;shape=mxgraph.flowchart.terminator;whiteSpace=wrap;" vertex="1" parent="WIyWlLk6GJQsqaUBKTNV-1">
          <mxGeometry x="50" y="280" width="190" height="60" as="geometry" />
        </mxCell>
        <mxCell id="Z5NDLy6NLCNYJSqrc3-v-7" value="" style="endArrow=none;dashed=1;html=1;rounded=0;exitX=1;exitY=0.5;exitDx=0;exitDy=0;" edge="1" parent="WIyWlLk6GJQsqaUBKTNV-1" source="Z5NDLy6NLCNYJSqrc3-v-3" target="Z5NDLy6NLCNYJSqrc3-v-8">
          <mxGeometry width="50" height="50" relative="1" as="geometry">
            <mxPoint x="100" y="240" as="sourcePoint" />
            <mxPoint x="320" y="230" as="targetPoint" />
          </mxGeometry>
        </mxCell>
        <mxCell id="Z5NDLy6NLCNYJSqrc3-v-8" value="Процедура, которая отрисовывает&lt;div&gt;прямоугольники, каждый из которых&lt;/div&gt;&lt;div&gt;содержит информацию об узле&lt;/div&gt;" style="strokeWidth=2;html=1;shape=mxgraph.flowchart.annotation_1;align=left;pointerEvents=1;" vertex="1" parent="WIyWlLk6GJQsqaUBKTNV-1">
          <mxGeometry x="300" y="195" width="25" height="70" as="geometry" />
        </mxCell>
        <mxCell id="Z5NDLy6NLCNYJSqrc3-v-9" value="" style="endArrow=none;dashed=1;html=1;rounded=0;exitX=1;exitY=0.5;exitDx=0;exitDy=0;" edge="1" parent="WIyWlLk6GJQsqaUBKTNV-1" source="Z5NDLy6NLCNYJSqrc3-v-1" target="Z5NDLy6NLCNYJSqrc3-v-10">
          <mxGeometry width="50" height="50" relative="1" as="geometry">
            <mxPoint x="150" y="240" as="sourcePoint" />
            <mxPoint x="300" y="150" as="targetPoint" />
          </mxGeometry>
        </mxCell>
        <mxCell id="Z5NDLy6NLCNYJSqrc3-v-10" value="Процедура, очищающая экран,&lt;div&gt;перед новой отрисовкой&lt;/div&gt;" style="strokeWidth=2;html=1;shape=mxgraph.flowchart.annotation_1;align=left;pointerEvents=1;" vertex="1" parent="WIyWlLk6GJQsqaUBKTNV-1">
          <mxGeometry x="300" y="120" width="25" height="60" as="geometry" />
        </mxCell>
      </root>
    </mxGraphModel>
  </diagram>
</mxfile>
